<mxfile host="app.diagrams.net" modified="2024-06-04T18:58:10.466Z" agent="Mozilla/5.0 (Windows NT 10.0; Win64; x64) AppleWebKit/537.36 (KHTML, like Gecko) Chrome/125.0.0.0 Safari/537.36" etag="2RXwfnC7A-1roO7ASQS2" version="24.4.3" type="github">
  <diagram id="R2lEEEUBdFMjLlhIrx00" name="Page-1">
    <mxGraphModel dx="2284" dy="780" grid="1" gridSize="10" guides="1" tooltips="1" connect="1" arrows="1" fold="1" page="1" pageScale="1" pageWidth="850" pageHeight="1100" math="0" shadow="0" extFonts="Permanent Marker^https://fonts.googleapis.com/css?family=Permanent+Marker">
      <root>
        <mxCell id="0" />
        <mxCell id="1" parent="0" />
        <mxCell id="C-vyLk0tnHw3VtMMgP7b-1" value="" style="edgeStyle=entityRelationEdgeStyle;endArrow=none;startArrow=none;endFill=0;startFill=0;exitX=1;exitY=0.5;exitDx=0;exitDy=0;entryX=0;entryY=0.5;entryDx=0;entryDy=0;" parent="1" source="C-vyLk0tnHw3VtMMgP7b-24" target="TNNoIdRgvDNIgL5Zo4_y-1" edge="1">
          <mxGeometry width="100" height="100" relative="1" as="geometry">
            <mxPoint x="290" y="380" as="sourcePoint" />
            <mxPoint x="370" y="400" as="targetPoint" />
          </mxGeometry>
        </mxCell>
        <mxCell id="C-vyLk0tnHw3VtMMgP7b-12" value="" style="edgeStyle=elbowEdgeStyle;endArrow=none;startArrow=none;endFill=0;startFill=0;entryX=1;entryY=0.5;entryDx=0;entryDy=0;exitX=1;exitY=0.5;exitDx=0;exitDy=0;" parent="1" source="C-vyLk0tnHw3VtMMgP7b-3" target="C-vyLk0tnHw3VtMMgP7b-14" edge="1">
          <mxGeometry width="100" height="100" relative="1" as="geometry">
            <mxPoint x="810" y="340" as="sourcePoint" />
            <mxPoint x="770" y="90" as="targetPoint" />
            <Array as="points">
              <mxPoint x="780" y="180" />
            </Array>
          </mxGeometry>
        </mxCell>
        <mxCell id="C-vyLk0tnHw3VtMMgP7b-2" value="Orders" style="shape=table;startSize=30;container=1;collapsible=1;childLayout=tableLayout;fixedRows=1;rowLines=0;fontStyle=1;align=center;resizeLast=1;" parent="1" vertex="1">
          <mxGeometry x="370" y="270" width="250" height="180" as="geometry" />
        </mxCell>
        <mxCell id="C-vyLk0tnHw3VtMMgP7b-3" value="" style="shape=partialRectangle;collapsible=0;dropTarget=0;pointerEvents=0;fillColor=none;points=[[0,0.5],[1,0.5]];portConstraint=eastwest;top=0;left=0;right=0;bottom=1;" parent="C-vyLk0tnHw3VtMMgP7b-2" vertex="1">
          <mxGeometry y="30" width="250" height="30" as="geometry" />
        </mxCell>
        <mxCell id="C-vyLk0tnHw3VtMMgP7b-4" value="PK" style="shape=partialRectangle;overflow=hidden;connectable=0;fillColor=none;top=0;left=0;bottom=0;right=0;fontStyle=1;" parent="C-vyLk0tnHw3VtMMgP7b-3" vertex="1">
          <mxGeometry width="30" height="30" as="geometry">
            <mxRectangle width="30" height="30" as="alternateBounds" />
          </mxGeometry>
        </mxCell>
        <mxCell id="C-vyLk0tnHw3VtMMgP7b-5" value="order_id" style="shape=partialRectangle;overflow=hidden;connectable=0;fillColor=none;top=0;left=0;bottom=0;right=0;align=left;spacingLeft=6;fontStyle=5;" parent="C-vyLk0tnHw3VtMMgP7b-3" vertex="1">
          <mxGeometry x="30" width="220" height="30" as="geometry">
            <mxRectangle width="220" height="30" as="alternateBounds" />
          </mxGeometry>
        </mxCell>
        <mxCell id="C-vyLk0tnHw3VtMMgP7b-6" value="" style="shape=partialRectangle;collapsible=0;dropTarget=0;pointerEvents=0;fillColor=none;points=[[0,0.5],[1,0.5]];portConstraint=eastwest;top=0;left=0;right=0;bottom=0;" parent="C-vyLk0tnHw3VtMMgP7b-2" vertex="1">
          <mxGeometry y="60" width="250" height="30" as="geometry" />
        </mxCell>
        <mxCell id="C-vyLk0tnHw3VtMMgP7b-7" value="FK1" style="shape=partialRectangle;overflow=hidden;connectable=0;fillColor=none;top=0;left=0;bottom=0;right=0;" parent="C-vyLk0tnHw3VtMMgP7b-6" vertex="1">
          <mxGeometry width="30" height="30" as="geometry">
            <mxRectangle width="30" height="30" as="alternateBounds" />
          </mxGeometry>
        </mxCell>
        <mxCell id="C-vyLk0tnHw3VtMMgP7b-8" value="book_id" style="shape=partialRectangle;overflow=hidden;connectable=0;fillColor=none;top=0;left=0;bottom=0;right=0;align=left;spacingLeft=6;" parent="C-vyLk0tnHw3VtMMgP7b-6" vertex="1">
          <mxGeometry x="30" width="220" height="30" as="geometry">
            <mxRectangle width="220" height="30" as="alternateBounds" />
          </mxGeometry>
        </mxCell>
        <mxCell id="C-vyLk0tnHw3VtMMgP7b-9" value="" style="shape=partialRectangle;collapsible=0;dropTarget=0;pointerEvents=0;fillColor=none;points=[[0,0.5],[1,0.5]];portConstraint=eastwest;top=0;left=0;right=0;bottom=0;" parent="C-vyLk0tnHw3VtMMgP7b-2" vertex="1">
          <mxGeometry y="90" width="250" height="30" as="geometry" />
        </mxCell>
        <mxCell id="C-vyLk0tnHw3VtMMgP7b-10" value="FK2" style="shape=partialRectangle;overflow=hidden;connectable=0;fillColor=none;top=0;left=0;bottom=0;right=0;" parent="C-vyLk0tnHw3VtMMgP7b-9" vertex="1">
          <mxGeometry width="30" height="30" as="geometry">
            <mxRectangle width="30" height="30" as="alternateBounds" />
          </mxGeometry>
        </mxCell>
        <mxCell id="C-vyLk0tnHw3VtMMgP7b-11" value="employee_id" style="shape=partialRectangle;overflow=hidden;connectable=0;fillColor=none;top=0;left=0;bottom=0;right=0;align=left;spacingLeft=6;" parent="C-vyLk0tnHw3VtMMgP7b-9" vertex="1">
          <mxGeometry x="30" width="220" height="30" as="geometry">
            <mxRectangle width="220" height="30" as="alternateBounds" />
          </mxGeometry>
        </mxCell>
        <mxCell id="TNNoIdRgvDNIgL5Zo4_y-1" value="" style="shape=partialRectangle;collapsible=0;dropTarget=0;pointerEvents=0;fillColor=none;points=[[0,0.5],[1,0.5]];portConstraint=eastwest;top=0;left=0;right=0;bottom=0;" vertex="1" parent="C-vyLk0tnHw3VtMMgP7b-2">
          <mxGeometry y="120" width="250" height="30" as="geometry" />
        </mxCell>
        <mxCell id="TNNoIdRgvDNIgL5Zo4_y-2" value="FK3" style="shape=partialRectangle;overflow=hidden;connectable=0;fillColor=none;top=0;left=0;bottom=0;right=0;" vertex="1" parent="TNNoIdRgvDNIgL5Zo4_y-1">
          <mxGeometry width="30" height="30" as="geometry">
            <mxRectangle width="30" height="30" as="alternateBounds" />
          </mxGeometry>
        </mxCell>
        <mxCell id="TNNoIdRgvDNIgL5Zo4_y-3" value="customer_idÂ " style="shape=partialRectangle;overflow=hidden;connectable=0;fillColor=none;top=0;left=0;bottom=0;right=0;align=left;spacingLeft=6;" vertex="1" parent="TNNoIdRgvDNIgL5Zo4_y-1">
          <mxGeometry x="30" width="220" height="30" as="geometry">
            <mxRectangle width="220" height="30" as="alternateBounds" />
          </mxGeometry>
        </mxCell>
        <mxCell id="TNNoIdRgvDNIgL5Zo4_y-4" value="" style="shape=partialRectangle;collapsible=0;dropTarget=0;pointerEvents=0;fillColor=none;points=[[0,0.5],[1,0.5]];portConstraint=eastwest;top=0;left=0;right=0;bottom=0;" vertex="1" parent="C-vyLk0tnHw3VtMMgP7b-2">
          <mxGeometry y="150" width="250" height="30" as="geometry" />
        </mxCell>
        <mxCell id="TNNoIdRgvDNIgL5Zo4_y-5" value="FK4" style="shape=partialRectangle;overflow=hidden;connectable=0;fillColor=none;top=0;left=0;bottom=0;right=0;" vertex="1" parent="TNNoIdRgvDNIgL5Zo4_y-4">
          <mxGeometry width="30" height="30" as="geometry">
            <mxRectangle width="30" height="30" as="alternateBounds" />
          </mxGeometry>
        </mxCell>
        <mxCell id="TNNoIdRgvDNIgL5Zo4_y-6" value="date" style="shape=partialRectangle;overflow=hidden;connectable=0;fillColor=none;top=0;left=0;bottom=0;right=0;align=left;spacingLeft=6;" vertex="1" parent="TNNoIdRgvDNIgL5Zo4_y-4">
          <mxGeometry x="30" width="220" height="30" as="geometry">
            <mxRectangle width="220" height="30" as="alternateBounds" />
          </mxGeometry>
        </mxCell>
        <mxCell id="C-vyLk0tnHw3VtMMgP7b-13" value="Sales" style="shape=table;startSize=30;container=1;collapsible=1;childLayout=tableLayout;fixedRows=1;rowLines=0;fontStyle=1;align=center;resizeLast=1;" parent="1" vertex="1">
          <mxGeometry x="480" y="10" width="250" height="180" as="geometry" />
        </mxCell>
        <mxCell id="C-vyLk0tnHw3VtMMgP7b-14" value="" style="shape=partialRectangle;collapsible=0;dropTarget=0;pointerEvents=0;fillColor=none;points=[[0,0.5],[1,0.5]];portConstraint=eastwest;top=0;left=0;right=0;bottom=1;" parent="C-vyLk0tnHw3VtMMgP7b-13" vertex="1">
          <mxGeometry y="30" width="250" height="30" as="geometry" />
        </mxCell>
        <mxCell id="C-vyLk0tnHw3VtMMgP7b-15" value="PK" style="shape=partialRectangle;overflow=hidden;connectable=0;fillColor=none;top=0;left=0;bottom=0;right=0;fontStyle=1;" parent="C-vyLk0tnHw3VtMMgP7b-14" vertex="1">
          <mxGeometry width="30" height="30" as="geometry">
            <mxRectangle width="30" height="30" as="alternateBounds" />
          </mxGeometry>
        </mxCell>
        <mxCell id="C-vyLk0tnHw3VtMMgP7b-16" value="order_id" style="shape=partialRectangle;overflow=hidden;connectable=0;fillColor=none;top=0;left=0;bottom=0;right=0;align=left;spacingLeft=6;fontStyle=5;" parent="C-vyLk0tnHw3VtMMgP7b-14" vertex="1">
          <mxGeometry x="30" width="220" height="30" as="geometry">
            <mxRectangle width="220" height="30" as="alternateBounds" />
          </mxGeometry>
        </mxCell>
        <mxCell id="C-vyLk0tnHw3VtMMgP7b-17" value="" style="shape=partialRectangle;collapsible=0;dropTarget=0;pointerEvents=0;fillColor=none;points=[[0,0.5],[1,0.5]];portConstraint=eastwest;top=0;left=0;right=0;bottom=0;" parent="C-vyLk0tnHw3VtMMgP7b-13" vertex="1">
          <mxGeometry y="60" width="250" height="30" as="geometry" />
        </mxCell>
        <mxCell id="C-vyLk0tnHw3VtMMgP7b-18" value="" style="shape=partialRectangle;overflow=hidden;connectable=0;fillColor=none;top=0;left=0;bottom=0;right=0;" parent="C-vyLk0tnHw3VtMMgP7b-17" vertex="1">
          <mxGeometry width="30" height="30" as="geometry">
            <mxRectangle width="30" height="30" as="alternateBounds" />
          </mxGeometry>
        </mxCell>
        <mxCell id="C-vyLk0tnHw3VtMMgP7b-19" value="paid_by_customer" style="shape=partialRectangle;overflow=hidden;connectable=0;fillColor=none;top=0;left=0;bottom=0;right=0;align=left;spacingLeft=6;" parent="C-vyLk0tnHw3VtMMgP7b-17" vertex="1">
          <mxGeometry x="30" width="220" height="30" as="geometry">
            <mxRectangle width="220" height="30" as="alternateBounds" />
          </mxGeometry>
        </mxCell>
        <mxCell id="C-vyLk0tnHw3VtMMgP7b-20" value="" style="shape=partialRectangle;collapsible=0;dropTarget=0;pointerEvents=0;fillColor=none;points=[[0,0.5],[1,0.5]];portConstraint=eastwest;top=0;left=0;right=0;bottom=0;" parent="C-vyLk0tnHw3VtMMgP7b-13" vertex="1">
          <mxGeometry y="90" width="250" height="30" as="geometry" />
        </mxCell>
        <mxCell id="C-vyLk0tnHw3VtMMgP7b-21" value="" style="shape=partialRectangle;overflow=hidden;connectable=0;fillColor=none;top=0;left=0;bottom=0;right=0;" parent="C-vyLk0tnHw3VtMMgP7b-20" vertex="1">
          <mxGeometry width="30" height="30" as="geometry">
            <mxRectangle width="30" height="30" as="alternateBounds" />
          </mxGeometry>
        </mxCell>
        <mxCell id="C-vyLk0tnHw3VtMMgP7b-22" value="quantity" style="shape=partialRectangle;overflow=hidden;connectable=0;fillColor=none;top=0;left=0;bottom=0;right=0;align=left;spacingLeft=6;" parent="C-vyLk0tnHw3VtMMgP7b-20" vertex="1">
          <mxGeometry x="30" width="220" height="30" as="geometry">
            <mxRectangle width="220" height="30" as="alternateBounds" />
          </mxGeometry>
        </mxCell>
        <mxCell id="TNNoIdRgvDNIgL5Zo4_y-35" value="" style="shape=partialRectangle;collapsible=0;dropTarget=0;pointerEvents=0;fillColor=none;points=[[0,0.5],[1,0.5]];portConstraint=eastwest;top=0;left=0;right=0;bottom=0;" vertex="1" parent="C-vyLk0tnHw3VtMMgP7b-13">
          <mxGeometry y="120" width="250" height="30" as="geometry" />
        </mxCell>
        <mxCell id="TNNoIdRgvDNIgL5Zo4_y-36" value="" style="shape=partialRectangle;overflow=hidden;connectable=0;fillColor=none;top=0;left=0;bottom=0;right=0;" vertex="1" parent="TNNoIdRgvDNIgL5Zo4_y-35">
          <mxGeometry width="30" height="30" as="geometry">
            <mxRectangle width="30" height="30" as="alternateBounds" />
          </mxGeometry>
        </mxCell>
        <mxCell id="TNNoIdRgvDNIgL5Zo4_y-37" value="payment_type" style="shape=partialRectangle;overflow=hidden;connectable=0;fillColor=none;top=0;left=0;bottom=0;right=0;align=left;spacingLeft=6;" vertex="1" parent="TNNoIdRgvDNIgL5Zo4_y-35">
          <mxGeometry x="30" width="220" height="30" as="geometry">
            <mxRectangle width="220" height="30" as="alternateBounds" />
          </mxGeometry>
        </mxCell>
        <mxCell id="TNNoIdRgvDNIgL5Zo4_y-41" value="" style="shape=partialRectangle;collapsible=0;dropTarget=0;pointerEvents=0;fillColor=none;points=[[0,0.5],[1,0.5]];portConstraint=eastwest;top=0;left=0;right=0;bottom=0;" vertex="1" parent="C-vyLk0tnHw3VtMMgP7b-13">
          <mxGeometry y="150" width="250" height="30" as="geometry" />
        </mxCell>
        <mxCell id="TNNoIdRgvDNIgL5Zo4_y-42" value="" style="shape=partialRectangle;overflow=hidden;connectable=0;fillColor=none;top=0;left=0;bottom=0;right=0;" vertex="1" parent="TNNoIdRgvDNIgL5Zo4_y-41">
          <mxGeometry width="30" height="30" as="geometry">
            <mxRectangle width="30" height="30" as="alternateBounds" />
          </mxGeometry>
        </mxCell>
        <mxCell id="TNNoIdRgvDNIgL5Zo4_y-43" value="shipping_date" style="shape=partialRectangle;overflow=hidden;connectable=0;fillColor=none;top=0;left=0;bottom=0;right=0;align=left;spacingLeft=6;" vertex="1" parent="TNNoIdRgvDNIgL5Zo4_y-41">
          <mxGeometry x="30" width="220" height="30" as="geometry">
            <mxRectangle width="220" height="30" as="alternateBounds" />
          </mxGeometry>
        </mxCell>
        <mxCell id="C-vyLk0tnHw3VtMMgP7b-23" value="Customers" style="shape=table;startSize=30;container=1;collapsible=1;childLayout=tableLayout;fixedRows=1;rowLines=0;fontStyle=1;align=center;resizeLast=1;" parent="1" vertex="1">
          <mxGeometry x="-40" y="500" width="250" height="210" as="geometry" />
        </mxCell>
        <mxCell id="C-vyLk0tnHw3VtMMgP7b-24" value="" style="shape=partialRectangle;collapsible=0;dropTarget=0;pointerEvents=0;fillColor=none;points=[[0,0.5],[1,0.5]];portConstraint=eastwest;top=0;left=0;right=0;bottom=1;" parent="C-vyLk0tnHw3VtMMgP7b-23" vertex="1">
          <mxGeometry y="30" width="250" height="30" as="geometry" />
        </mxCell>
        <mxCell id="C-vyLk0tnHw3VtMMgP7b-25" value="PK" style="shape=partialRectangle;overflow=hidden;connectable=0;fillColor=none;top=0;left=0;bottom=0;right=0;fontStyle=1;" parent="C-vyLk0tnHw3VtMMgP7b-24" vertex="1">
          <mxGeometry width="30" height="30" as="geometry">
            <mxRectangle width="30" height="30" as="alternateBounds" />
          </mxGeometry>
        </mxCell>
        <mxCell id="C-vyLk0tnHw3VtMMgP7b-26" value="customer_id" style="shape=partialRectangle;overflow=hidden;connectable=0;fillColor=none;top=0;left=0;bottom=0;right=0;align=left;spacingLeft=6;fontStyle=5;" parent="C-vyLk0tnHw3VtMMgP7b-24" vertex="1">
          <mxGeometry x="30" width="220" height="30" as="geometry">
            <mxRectangle width="220" height="30" as="alternateBounds" />
          </mxGeometry>
        </mxCell>
        <mxCell id="C-vyLk0tnHw3VtMMgP7b-27" value="" style="shape=partialRectangle;collapsible=0;dropTarget=0;pointerEvents=0;fillColor=none;points=[[0,0.5],[1,0.5]];portConstraint=eastwest;top=0;left=0;right=0;bottom=0;" parent="C-vyLk0tnHw3VtMMgP7b-23" vertex="1">
          <mxGeometry y="60" width="250" height="30" as="geometry" />
        </mxCell>
        <mxCell id="C-vyLk0tnHw3VtMMgP7b-28" value="" style="shape=partialRectangle;overflow=hidden;connectable=0;fillColor=none;top=0;left=0;bottom=0;right=0;" parent="C-vyLk0tnHw3VtMMgP7b-27" vertex="1">
          <mxGeometry width="30" height="30" as="geometry">
            <mxRectangle width="30" height="30" as="alternateBounds" />
          </mxGeometry>
        </mxCell>
        <mxCell id="C-vyLk0tnHw3VtMMgP7b-29" value="first_name" style="shape=partialRectangle;overflow=hidden;connectable=0;fillColor=none;top=0;left=0;bottom=0;right=0;align=left;spacingLeft=6;" parent="C-vyLk0tnHw3VtMMgP7b-27" vertex="1">
          <mxGeometry x="30" width="220" height="30" as="geometry">
            <mxRectangle width="220" height="30" as="alternateBounds" />
          </mxGeometry>
        </mxCell>
        <mxCell id="TNNoIdRgvDNIgL5Zo4_y-7" value="" style="shape=partialRectangle;collapsible=0;dropTarget=0;pointerEvents=0;fillColor=none;points=[[0,0.5],[1,0.5]];portConstraint=eastwest;top=0;left=0;right=0;bottom=0;" vertex="1" parent="C-vyLk0tnHw3VtMMgP7b-23">
          <mxGeometry y="90" width="250" height="30" as="geometry" />
        </mxCell>
        <mxCell id="TNNoIdRgvDNIgL5Zo4_y-8" value="" style="shape=partialRectangle;overflow=hidden;connectable=0;fillColor=none;top=0;left=0;bottom=0;right=0;" vertex="1" parent="TNNoIdRgvDNIgL5Zo4_y-7">
          <mxGeometry width="30" height="30" as="geometry">
            <mxRectangle width="30" height="30" as="alternateBounds" />
          </mxGeometry>
        </mxCell>
        <mxCell id="TNNoIdRgvDNIgL5Zo4_y-9" value="last_name" style="shape=partialRectangle;overflow=hidden;connectable=0;fillColor=none;top=0;left=0;bottom=0;right=0;align=left;spacingLeft=6;" vertex="1" parent="TNNoIdRgvDNIgL5Zo4_y-7">
          <mxGeometry x="30" width="220" height="30" as="geometry">
            <mxRectangle width="220" height="30" as="alternateBounds" />
          </mxGeometry>
        </mxCell>
        <mxCell id="TNNoIdRgvDNIgL5Zo4_y-10" value="" style="shape=partialRectangle;collapsible=0;dropTarget=0;pointerEvents=0;fillColor=none;points=[[0,0.5],[1,0.5]];portConstraint=eastwest;top=0;left=0;right=0;bottom=0;" vertex="1" parent="C-vyLk0tnHw3VtMMgP7b-23">
          <mxGeometry y="120" width="250" height="30" as="geometry" />
        </mxCell>
        <mxCell id="TNNoIdRgvDNIgL5Zo4_y-11" value="" style="shape=partialRectangle;overflow=hidden;connectable=0;fillColor=none;top=0;left=0;bottom=0;right=0;" vertex="1" parent="TNNoIdRgvDNIgL5Zo4_y-10">
          <mxGeometry width="30" height="30" as="geometry">
            <mxRectangle width="30" height="30" as="alternateBounds" />
          </mxGeometry>
        </mxCell>
        <mxCell id="TNNoIdRgvDNIgL5Zo4_y-12" value="email" style="shape=partialRectangle;overflow=hidden;connectable=0;fillColor=none;top=0;left=0;bottom=0;right=0;align=left;spacingLeft=6;" vertex="1" parent="TNNoIdRgvDNIgL5Zo4_y-10">
          <mxGeometry x="30" width="220" height="30" as="geometry">
            <mxRectangle width="220" height="30" as="alternateBounds" />
          </mxGeometry>
        </mxCell>
        <mxCell id="TNNoIdRgvDNIgL5Zo4_y-13" value="" style="shape=partialRectangle;collapsible=0;dropTarget=0;pointerEvents=0;fillColor=none;points=[[0,0.5],[1,0.5]];portConstraint=eastwest;top=0;left=0;right=0;bottom=0;" vertex="1" parent="C-vyLk0tnHw3VtMMgP7b-23">
          <mxGeometry y="150" width="250" height="30" as="geometry" />
        </mxCell>
        <mxCell id="TNNoIdRgvDNIgL5Zo4_y-14" value="" style="shape=partialRectangle;overflow=hidden;connectable=0;fillColor=none;top=0;left=0;bottom=0;right=0;" vertex="1" parent="TNNoIdRgvDNIgL5Zo4_y-13">
          <mxGeometry width="30" height="30" as="geometry">
            <mxRectangle width="30" height="30" as="alternateBounds" />
          </mxGeometry>
        </mxCell>
        <mxCell id="TNNoIdRgvDNIgL5Zo4_y-15" value="phone_no" style="shape=partialRectangle;overflow=hidden;connectable=0;fillColor=none;top=0;left=0;bottom=0;right=0;align=left;spacingLeft=6;" vertex="1" parent="TNNoIdRgvDNIgL5Zo4_y-13">
          <mxGeometry x="30" width="220" height="30" as="geometry">
            <mxRectangle width="220" height="30" as="alternateBounds" />
          </mxGeometry>
        </mxCell>
        <mxCell id="TNNoIdRgvDNIgL5Zo4_y-91" value="" style="shape=partialRectangle;collapsible=0;dropTarget=0;pointerEvents=0;fillColor=none;points=[[0,0.5],[1,0.5]];portConstraint=eastwest;top=0;left=0;right=0;bottom=0;" vertex="1" parent="C-vyLk0tnHw3VtMMgP7b-23">
          <mxGeometry y="180" width="250" height="30" as="geometry" />
        </mxCell>
        <mxCell id="TNNoIdRgvDNIgL5Zo4_y-92" value="" style="shape=partialRectangle;overflow=hidden;connectable=0;fillColor=none;top=0;left=0;bottom=0;right=0;" vertex="1" parent="TNNoIdRgvDNIgL5Zo4_y-91">
          <mxGeometry width="30" height="30" as="geometry">
            <mxRectangle width="30" height="30" as="alternateBounds" />
          </mxGeometry>
        </mxCell>
        <mxCell id="TNNoIdRgvDNIgL5Zo4_y-93" value="address" style="shape=partialRectangle;overflow=hidden;connectable=0;fillColor=none;top=0;left=0;bottom=0;right=0;align=left;spacingLeft=6;" vertex="1" parent="TNNoIdRgvDNIgL5Zo4_y-91">
          <mxGeometry x="30" width="220" height="30" as="geometry">
            <mxRectangle width="220" height="30" as="alternateBounds" />
          </mxGeometry>
        </mxCell>
        <mxCell id="TNNoIdRgvDNIgL5Zo4_y-16" value="Books" style="shape=table;startSize=30;container=1;collapsible=1;childLayout=tableLayout;fixedRows=1;rowLines=0;fontStyle=1;align=center;resizeLast=1;" vertex="1" parent="1">
          <mxGeometry x="-30" y="40" width="250" height="180" as="geometry" />
        </mxCell>
        <mxCell id="TNNoIdRgvDNIgL5Zo4_y-17" value="" style="shape=partialRectangle;collapsible=0;dropTarget=0;pointerEvents=0;fillColor=none;points=[[0,0.5],[1,0.5]];portConstraint=eastwest;top=0;left=0;right=0;bottom=1;" vertex="1" parent="TNNoIdRgvDNIgL5Zo4_y-16">
          <mxGeometry y="30" width="250" height="30" as="geometry" />
        </mxCell>
        <mxCell id="TNNoIdRgvDNIgL5Zo4_y-18" value="PK" style="shape=partialRectangle;overflow=hidden;connectable=0;fillColor=none;top=0;left=0;bottom=0;right=0;fontStyle=1;" vertex="1" parent="TNNoIdRgvDNIgL5Zo4_y-17">
          <mxGeometry width="30" height="30" as="geometry">
            <mxRectangle width="30" height="30" as="alternateBounds" />
          </mxGeometry>
        </mxCell>
        <mxCell id="TNNoIdRgvDNIgL5Zo4_y-19" value="book_id" style="shape=partialRectangle;overflow=hidden;connectable=0;fillColor=none;top=0;left=0;bottom=0;right=0;align=left;spacingLeft=6;fontStyle=5;" vertex="1" parent="TNNoIdRgvDNIgL5Zo4_y-17">
          <mxGeometry x="30" width="220" height="30" as="geometry">
            <mxRectangle width="220" height="30" as="alternateBounds" />
          </mxGeometry>
        </mxCell>
        <mxCell id="TNNoIdRgvDNIgL5Zo4_y-20" value="" style="shape=partialRectangle;collapsible=0;dropTarget=0;pointerEvents=0;fillColor=none;points=[[0,0.5],[1,0.5]];portConstraint=eastwest;top=0;left=0;right=0;bottom=0;" vertex="1" parent="TNNoIdRgvDNIgL5Zo4_y-16">
          <mxGeometry y="60" width="250" height="30" as="geometry" />
        </mxCell>
        <mxCell id="TNNoIdRgvDNIgL5Zo4_y-21" value="" style="shape=partialRectangle;overflow=hidden;connectable=0;fillColor=none;top=0;left=0;bottom=0;right=0;" vertex="1" parent="TNNoIdRgvDNIgL5Zo4_y-20">
          <mxGeometry width="30" height="30" as="geometry">
            <mxRectangle width="30" height="30" as="alternateBounds" />
          </mxGeometry>
        </mxCell>
        <mxCell id="TNNoIdRgvDNIgL5Zo4_y-22" value="title" style="shape=partialRectangle;overflow=hidden;connectable=0;fillColor=none;top=0;left=0;bottom=0;right=0;align=left;spacingLeft=6;" vertex="1" parent="TNNoIdRgvDNIgL5Zo4_y-20">
          <mxGeometry x="30" width="220" height="30" as="geometry">
            <mxRectangle width="220" height="30" as="alternateBounds" />
          </mxGeometry>
        </mxCell>
        <mxCell id="TNNoIdRgvDNIgL5Zo4_y-23" value="" style="shape=partialRectangle;collapsible=0;dropTarget=0;pointerEvents=0;fillColor=none;points=[[0,0.5],[1,0.5]];portConstraint=eastwest;top=0;left=0;right=0;bottom=0;" vertex="1" parent="TNNoIdRgvDNIgL5Zo4_y-16">
          <mxGeometry y="90" width="250" height="30" as="geometry" />
        </mxCell>
        <mxCell id="TNNoIdRgvDNIgL5Zo4_y-24" value="" style="shape=partialRectangle;overflow=hidden;connectable=0;fillColor=none;top=0;left=0;bottom=0;right=0;" vertex="1" parent="TNNoIdRgvDNIgL5Zo4_y-23">
          <mxGeometry width="30" height="30" as="geometry">
            <mxRectangle width="30" height="30" as="alternateBounds" />
          </mxGeometry>
        </mxCell>
        <mxCell id="TNNoIdRgvDNIgL5Zo4_y-25" value="author" style="shape=partialRectangle;overflow=hidden;connectable=0;fillColor=none;top=0;left=0;bottom=0;right=0;align=left;spacingLeft=6;" vertex="1" parent="TNNoIdRgvDNIgL5Zo4_y-23">
          <mxGeometry x="30" width="220" height="30" as="geometry">
            <mxRectangle width="220" height="30" as="alternateBounds" />
          </mxGeometry>
        </mxCell>
        <mxCell id="TNNoIdRgvDNIgL5Zo4_y-26" value="" style="shape=partialRectangle;collapsible=0;dropTarget=0;pointerEvents=0;fillColor=none;points=[[0,0.5],[1,0.5]];portConstraint=eastwest;top=0;left=0;right=0;bottom=0;" vertex="1" parent="TNNoIdRgvDNIgL5Zo4_y-16">
          <mxGeometry y="120" width="250" height="30" as="geometry" />
        </mxCell>
        <mxCell id="TNNoIdRgvDNIgL5Zo4_y-27" value="" style="shape=partialRectangle;overflow=hidden;connectable=0;fillColor=none;top=0;left=0;bottom=0;right=0;" vertex="1" parent="TNNoIdRgvDNIgL5Zo4_y-26">
          <mxGeometry width="30" height="30" as="geometry">
            <mxRectangle width="30" height="30" as="alternateBounds" />
          </mxGeometry>
        </mxCell>
        <mxCell id="TNNoIdRgvDNIgL5Zo4_y-28" value="year" style="shape=partialRectangle;overflow=hidden;connectable=0;fillColor=none;top=0;left=0;bottom=0;right=0;align=left;spacingLeft=6;" vertex="1" parent="TNNoIdRgvDNIgL5Zo4_y-26">
          <mxGeometry x="30" width="220" height="30" as="geometry">
            <mxRectangle width="220" height="30" as="alternateBounds" />
          </mxGeometry>
        </mxCell>
        <mxCell id="TNNoIdRgvDNIgL5Zo4_y-29" value="" style="shape=partialRectangle;collapsible=0;dropTarget=0;pointerEvents=0;fillColor=none;points=[[0,0.5],[1,0.5]];portConstraint=eastwest;top=0;left=0;right=0;bottom=0;" vertex="1" parent="TNNoIdRgvDNIgL5Zo4_y-16">
          <mxGeometry y="150" width="250" height="30" as="geometry" />
        </mxCell>
        <mxCell id="TNNoIdRgvDNIgL5Zo4_y-30" value="" style="shape=partialRectangle;overflow=hidden;connectable=0;fillColor=none;top=0;left=0;bottom=0;right=0;" vertex="1" parent="TNNoIdRgvDNIgL5Zo4_y-29">
          <mxGeometry width="30" height="30" as="geometry">
            <mxRectangle width="30" height="30" as="alternateBounds" />
          </mxGeometry>
        </mxCell>
        <mxCell id="TNNoIdRgvDNIgL5Zo4_y-31" value="category" style="shape=partialRectangle;overflow=hidden;connectable=0;fillColor=none;top=0;left=0;bottom=0;right=0;align=left;spacingLeft=6;" vertex="1" parent="TNNoIdRgvDNIgL5Zo4_y-29">
          <mxGeometry x="30" width="220" height="30" as="geometry">
            <mxRectangle width="220" height="30" as="alternateBounds" />
          </mxGeometry>
        </mxCell>
        <mxCell id="TNNoIdRgvDNIgL5Zo4_y-32" value="" style="edgeStyle=entityRelationEdgeStyle;endArrow=none;startArrow=none;endFill=0;startFill=0;exitX=1;exitY=0.5;exitDx=0;exitDy=0;entryX=0;entryY=0.5;entryDx=0;entryDy=0;" edge="1" parent="1" source="TNNoIdRgvDNIgL5Zo4_y-17" target="C-vyLk0tnHw3VtMMgP7b-6">
          <mxGeometry width="100" height="100" relative="1" as="geometry">
            <mxPoint x="210" y="390" as="sourcePoint" />
            <mxPoint x="360" y="270" as="targetPoint" />
          </mxGeometry>
        </mxCell>
        <mxCell id="TNNoIdRgvDNIgL5Zo4_y-45" value="Employees" style="shape=table;startSize=30;container=1;collapsible=1;childLayout=tableLayout;fixedRows=1;rowLines=0;fontStyle=1;align=center;resizeLast=1;" vertex="1" parent="1">
          <mxGeometry x="-30" y="260" width="250" height="210" as="geometry" />
        </mxCell>
        <mxCell id="TNNoIdRgvDNIgL5Zo4_y-46" value="" style="shape=partialRectangle;collapsible=0;dropTarget=0;pointerEvents=0;fillColor=none;points=[[0,0.5],[1,0.5]];portConstraint=eastwest;top=0;left=0;right=0;bottom=1;" vertex="1" parent="TNNoIdRgvDNIgL5Zo4_y-45">
          <mxGeometry y="30" width="250" height="30" as="geometry" />
        </mxCell>
        <mxCell id="TNNoIdRgvDNIgL5Zo4_y-47" value="PK" style="shape=partialRectangle;overflow=hidden;connectable=0;fillColor=none;top=0;left=0;bottom=0;right=0;fontStyle=1;" vertex="1" parent="TNNoIdRgvDNIgL5Zo4_y-46">
          <mxGeometry width="30" height="30" as="geometry">
            <mxRectangle width="30" height="30" as="alternateBounds" />
          </mxGeometry>
        </mxCell>
        <mxCell id="TNNoIdRgvDNIgL5Zo4_y-48" value="employee_id" style="shape=partialRectangle;overflow=hidden;connectable=0;fillColor=none;top=0;left=0;bottom=0;right=0;align=left;spacingLeft=6;fontStyle=5;" vertex="1" parent="TNNoIdRgvDNIgL5Zo4_y-46">
          <mxGeometry x="30" width="220" height="30" as="geometry">
            <mxRectangle width="220" height="30" as="alternateBounds" />
          </mxGeometry>
        </mxCell>
        <mxCell id="TNNoIdRgvDNIgL5Zo4_y-49" value="" style="shape=partialRectangle;collapsible=0;dropTarget=0;pointerEvents=0;fillColor=none;points=[[0,0.5],[1,0.5]];portConstraint=eastwest;top=0;left=0;right=0;bottom=0;" vertex="1" parent="TNNoIdRgvDNIgL5Zo4_y-45">
          <mxGeometry y="60" width="250" height="30" as="geometry" />
        </mxCell>
        <mxCell id="TNNoIdRgvDNIgL5Zo4_y-50" value="" style="shape=partialRectangle;overflow=hidden;connectable=0;fillColor=none;top=0;left=0;bottom=0;right=0;" vertex="1" parent="TNNoIdRgvDNIgL5Zo4_y-49">
          <mxGeometry width="30" height="30" as="geometry">
            <mxRectangle width="30" height="30" as="alternateBounds" />
          </mxGeometry>
        </mxCell>
        <mxCell id="TNNoIdRgvDNIgL5Zo4_y-51" value="first_name" style="shape=partialRectangle;overflow=hidden;connectable=0;fillColor=none;top=0;left=0;bottom=0;right=0;align=left;spacingLeft=6;" vertex="1" parent="TNNoIdRgvDNIgL5Zo4_y-49">
          <mxGeometry x="30" width="220" height="30" as="geometry">
            <mxRectangle width="220" height="30" as="alternateBounds" />
          </mxGeometry>
        </mxCell>
        <mxCell id="TNNoIdRgvDNIgL5Zo4_y-52" value="" style="shape=partialRectangle;collapsible=0;dropTarget=0;pointerEvents=0;fillColor=none;points=[[0,0.5],[1,0.5]];portConstraint=eastwest;top=0;left=0;right=0;bottom=0;" vertex="1" parent="TNNoIdRgvDNIgL5Zo4_y-45">
          <mxGeometry y="90" width="250" height="30" as="geometry" />
        </mxCell>
        <mxCell id="TNNoIdRgvDNIgL5Zo4_y-53" value="" style="shape=partialRectangle;overflow=hidden;connectable=0;fillColor=none;top=0;left=0;bottom=0;right=0;" vertex="1" parent="TNNoIdRgvDNIgL5Zo4_y-52">
          <mxGeometry width="30" height="30" as="geometry">
            <mxRectangle width="30" height="30" as="alternateBounds" />
          </mxGeometry>
        </mxCell>
        <mxCell id="TNNoIdRgvDNIgL5Zo4_y-54" value="last_name" style="shape=partialRectangle;overflow=hidden;connectable=0;fillColor=none;top=0;left=0;bottom=0;right=0;align=left;spacingLeft=6;" vertex="1" parent="TNNoIdRgvDNIgL5Zo4_y-52">
          <mxGeometry x="30" width="220" height="30" as="geometry">
            <mxRectangle width="220" height="30" as="alternateBounds" />
          </mxGeometry>
        </mxCell>
        <mxCell id="TNNoIdRgvDNIgL5Zo4_y-55" value="" style="shape=partialRectangle;collapsible=0;dropTarget=0;pointerEvents=0;fillColor=none;points=[[0,0.5],[1,0.5]];portConstraint=eastwest;top=0;left=0;right=0;bottom=0;" vertex="1" parent="TNNoIdRgvDNIgL5Zo4_y-45">
          <mxGeometry y="120" width="250" height="30" as="geometry" />
        </mxCell>
        <mxCell id="TNNoIdRgvDNIgL5Zo4_y-56" value="" style="shape=partialRectangle;overflow=hidden;connectable=0;fillColor=none;top=0;left=0;bottom=0;right=0;" vertex="1" parent="TNNoIdRgvDNIgL5Zo4_y-55">
          <mxGeometry width="30" height="30" as="geometry">
            <mxRectangle width="30" height="30" as="alternateBounds" />
          </mxGeometry>
        </mxCell>
        <mxCell id="TNNoIdRgvDNIgL5Zo4_y-57" value="email" style="shape=partialRectangle;overflow=hidden;connectable=0;fillColor=none;top=0;left=0;bottom=0;right=0;align=left;spacingLeft=6;" vertex="1" parent="TNNoIdRgvDNIgL5Zo4_y-55">
          <mxGeometry x="30" width="220" height="30" as="geometry">
            <mxRectangle width="220" height="30" as="alternateBounds" />
          </mxGeometry>
        </mxCell>
        <mxCell id="TNNoIdRgvDNIgL5Zo4_y-58" value="" style="shape=partialRectangle;collapsible=0;dropTarget=0;pointerEvents=0;fillColor=none;points=[[0,0.5],[1,0.5]];portConstraint=eastwest;top=0;left=0;right=0;bottom=0;" vertex="1" parent="TNNoIdRgvDNIgL5Zo4_y-45">
          <mxGeometry y="150" width="250" height="30" as="geometry" />
        </mxCell>
        <mxCell id="TNNoIdRgvDNIgL5Zo4_y-59" value="" style="shape=partialRectangle;overflow=hidden;connectable=0;fillColor=none;top=0;left=0;bottom=0;right=0;" vertex="1" parent="TNNoIdRgvDNIgL5Zo4_y-58">
          <mxGeometry width="30" height="30" as="geometry">
            <mxRectangle width="30" height="30" as="alternateBounds" />
          </mxGeometry>
        </mxCell>
        <mxCell id="TNNoIdRgvDNIgL5Zo4_y-60" value="phone_no" style="shape=partialRectangle;overflow=hidden;connectable=0;fillColor=none;top=0;left=0;bottom=0;right=0;align=left;spacingLeft=6;" vertex="1" parent="TNNoIdRgvDNIgL5Zo4_y-58">
          <mxGeometry x="30" width="220" height="30" as="geometry">
            <mxRectangle width="220" height="30" as="alternateBounds" />
          </mxGeometry>
        </mxCell>
        <mxCell id="TNNoIdRgvDNIgL5Zo4_y-61" value="" style="shape=partialRectangle;collapsible=0;dropTarget=0;pointerEvents=0;fillColor=none;points=[[0,0.5],[1,0.5]];portConstraint=eastwest;top=0;left=0;right=0;bottom=0;" vertex="1" parent="TNNoIdRgvDNIgL5Zo4_y-45">
          <mxGeometry y="180" width="250" height="30" as="geometry" />
        </mxCell>
        <mxCell id="TNNoIdRgvDNIgL5Zo4_y-62" value="" style="shape=partialRectangle;overflow=hidden;connectable=0;fillColor=none;top=0;left=0;bottom=0;right=0;" vertex="1" parent="TNNoIdRgvDNIgL5Zo4_y-61">
          <mxGeometry width="30" height="30" as="geometry">
            <mxRectangle width="30" height="30" as="alternateBounds" />
          </mxGeometry>
        </mxCell>
        <mxCell id="TNNoIdRgvDNIgL5Zo4_y-63" value="address" style="shape=partialRectangle;overflow=hidden;connectable=0;fillColor=none;top=0;left=0;bottom=0;right=0;align=left;spacingLeft=6;" vertex="1" parent="TNNoIdRgvDNIgL5Zo4_y-61">
          <mxGeometry x="30" width="220" height="30" as="geometry">
            <mxRectangle width="220" height="30" as="alternateBounds" />
          </mxGeometry>
        </mxCell>
        <mxCell id="TNNoIdRgvDNIgL5Zo4_y-64" value="" style="edgeStyle=entityRelationEdgeStyle;endArrow=none;startArrow=none;endFill=0;startFill=0;exitX=1;exitY=0.5;exitDx=0;exitDy=0;entryX=0;entryY=0.5;entryDx=0;entryDy=0;" edge="1" parent="1" source="TNNoIdRgvDNIgL5Zo4_y-46" target="C-vyLk0tnHw3VtMMgP7b-9">
          <mxGeometry width="100" height="100" relative="1" as="geometry">
            <mxPoint x="200" y="580" as="sourcePoint" />
            <mxPoint x="350" y="380" as="targetPoint" />
          </mxGeometry>
        </mxCell>
        <mxCell id="TNNoIdRgvDNIgL5Zo4_y-65" value="Date" style="shape=table;startSize=30;container=1;collapsible=1;childLayout=tableLayout;fixedRows=1;rowLines=0;fontStyle=1;align=center;resizeLast=1;" vertex="1" parent="1">
          <mxGeometry x="650" y="460" width="250" height="270" as="geometry" />
        </mxCell>
        <mxCell id="TNNoIdRgvDNIgL5Zo4_y-66" value="" style="shape=partialRectangle;collapsible=0;dropTarget=0;pointerEvents=0;fillColor=none;points=[[0,0.5],[1,0.5]];portConstraint=eastwest;top=0;left=0;right=0;bottom=1;" vertex="1" parent="TNNoIdRgvDNIgL5Zo4_y-65">
          <mxGeometry y="30" width="250" height="30" as="geometry" />
        </mxCell>
        <mxCell id="TNNoIdRgvDNIgL5Zo4_y-67" value="PK" style="shape=partialRectangle;overflow=hidden;connectable=0;fillColor=none;top=0;left=0;bottom=0;right=0;fontStyle=1;" vertex="1" parent="TNNoIdRgvDNIgL5Zo4_y-66">
          <mxGeometry width="30" height="30" as="geometry">
            <mxRectangle width="30" height="30" as="alternateBounds" />
          </mxGeometry>
        </mxCell>
        <mxCell id="TNNoIdRgvDNIgL5Zo4_y-68" value="date" style="shape=partialRectangle;overflow=hidden;connectable=0;fillColor=none;top=0;left=0;bottom=0;right=0;align=left;spacingLeft=6;fontStyle=5;" vertex="1" parent="TNNoIdRgvDNIgL5Zo4_y-66">
          <mxGeometry x="30" width="220" height="30" as="geometry">
            <mxRectangle width="220" height="30" as="alternateBounds" />
          </mxGeometry>
        </mxCell>
        <mxCell id="TNNoIdRgvDNIgL5Zo4_y-69" value="" style="shape=partialRectangle;collapsible=0;dropTarget=0;pointerEvents=0;fillColor=none;points=[[0,0.5],[1,0.5]];portConstraint=eastwest;top=0;left=0;right=0;bottom=0;" vertex="1" parent="TNNoIdRgvDNIgL5Zo4_y-65">
          <mxGeometry y="60" width="250" height="30" as="geometry" />
        </mxCell>
        <mxCell id="TNNoIdRgvDNIgL5Zo4_y-70" value="" style="shape=partialRectangle;overflow=hidden;connectable=0;fillColor=none;top=0;left=0;bottom=0;right=0;" vertex="1" parent="TNNoIdRgvDNIgL5Zo4_y-69">
          <mxGeometry width="30" height="30" as="geometry">
            <mxRectangle width="30" height="30" as="alternateBounds" />
          </mxGeometry>
        </mxCell>
        <mxCell id="TNNoIdRgvDNIgL5Zo4_y-71" value="week" style="shape=partialRectangle;overflow=hidden;connectable=0;fillColor=none;top=0;left=0;bottom=0;right=0;align=left;spacingLeft=6;" vertex="1" parent="TNNoIdRgvDNIgL5Zo4_y-69">
          <mxGeometry x="30" width="220" height="30" as="geometry">
            <mxRectangle width="220" height="30" as="alternateBounds" />
          </mxGeometry>
        </mxCell>
        <mxCell id="TNNoIdRgvDNIgL5Zo4_y-72" value="" style="shape=partialRectangle;collapsible=0;dropTarget=0;pointerEvents=0;fillColor=none;points=[[0,0.5],[1,0.5]];portConstraint=eastwest;top=0;left=0;right=0;bottom=0;" vertex="1" parent="TNNoIdRgvDNIgL5Zo4_y-65">
          <mxGeometry y="90" width="250" height="30" as="geometry" />
        </mxCell>
        <mxCell id="TNNoIdRgvDNIgL5Zo4_y-73" value="" style="shape=partialRectangle;overflow=hidden;connectable=0;fillColor=none;top=0;left=0;bottom=0;right=0;" vertex="1" parent="TNNoIdRgvDNIgL5Zo4_y-72">
          <mxGeometry width="30" height="30" as="geometry">
            <mxRectangle width="30" height="30" as="alternateBounds" />
          </mxGeometry>
        </mxCell>
        <mxCell id="TNNoIdRgvDNIgL5Zo4_y-74" value="month" style="shape=partialRectangle;overflow=hidden;connectable=0;fillColor=none;top=0;left=0;bottom=0;right=0;align=left;spacingLeft=6;" vertex="1" parent="TNNoIdRgvDNIgL5Zo4_y-72">
          <mxGeometry x="30" width="220" height="30" as="geometry">
            <mxRectangle width="220" height="30" as="alternateBounds" />
          </mxGeometry>
        </mxCell>
        <mxCell id="TNNoIdRgvDNIgL5Zo4_y-75" value="" style="shape=partialRectangle;collapsible=0;dropTarget=0;pointerEvents=0;fillColor=none;points=[[0,0.5],[1,0.5]];portConstraint=eastwest;top=0;left=0;right=0;bottom=0;" vertex="1" parent="TNNoIdRgvDNIgL5Zo4_y-65">
          <mxGeometry y="120" width="250" height="30" as="geometry" />
        </mxCell>
        <mxCell id="TNNoIdRgvDNIgL5Zo4_y-76" value="" style="shape=partialRectangle;overflow=hidden;connectable=0;fillColor=none;top=0;left=0;bottom=0;right=0;" vertex="1" parent="TNNoIdRgvDNIgL5Zo4_y-75">
          <mxGeometry width="30" height="30" as="geometry">
            <mxRectangle width="30" height="30" as="alternateBounds" />
          </mxGeometry>
        </mxCell>
        <mxCell id="TNNoIdRgvDNIgL5Zo4_y-77" value="year" style="shape=partialRectangle;overflow=hidden;connectable=0;fillColor=none;top=0;left=0;bottom=0;right=0;align=left;spacingLeft=6;" vertex="1" parent="TNNoIdRgvDNIgL5Zo4_y-75">
          <mxGeometry x="30" width="220" height="30" as="geometry">
            <mxRectangle width="220" height="30" as="alternateBounds" />
          </mxGeometry>
        </mxCell>
        <mxCell id="TNNoIdRgvDNIgL5Zo4_y-78" value="" style="shape=partialRectangle;collapsible=0;dropTarget=0;pointerEvents=0;fillColor=none;points=[[0,0.5],[1,0.5]];portConstraint=eastwest;top=0;left=0;right=0;bottom=0;" vertex="1" parent="TNNoIdRgvDNIgL5Zo4_y-65">
          <mxGeometry y="150" width="250" height="30" as="geometry" />
        </mxCell>
        <mxCell id="TNNoIdRgvDNIgL5Zo4_y-79" value="" style="shape=partialRectangle;overflow=hidden;connectable=0;fillColor=none;top=0;left=0;bottom=0;right=0;" vertex="1" parent="TNNoIdRgvDNIgL5Zo4_y-78">
          <mxGeometry width="30" height="30" as="geometry">
            <mxRectangle width="30" height="30" as="alternateBounds" />
          </mxGeometry>
        </mxCell>
        <mxCell id="TNNoIdRgvDNIgL5Zo4_y-80" value="quarter" style="shape=partialRectangle;overflow=hidden;connectable=0;fillColor=none;top=0;left=0;bottom=0;right=0;align=left;spacingLeft=6;" vertex="1" parent="TNNoIdRgvDNIgL5Zo4_y-78">
          <mxGeometry x="30" width="220" height="30" as="geometry">
            <mxRectangle width="220" height="30" as="alternateBounds" />
          </mxGeometry>
        </mxCell>
        <mxCell id="TNNoIdRgvDNIgL5Zo4_y-82" value="" style="shape=partialRectangle;collapsible=0;dropTarget=0;pointerEvents=0;fillColor=none;points=[[0,0.5],[1,0.5]];portConstraint=eastwest;top=0;left=0;right=0;bottom=0;" vertex="1" parent="TNNoIdRgvDNIgL5Zo4_y-65">
          <mxGeometry y="180" width="250" height="30" as="geometry" />
        </mxCell>
        <mxCell id="TNNoIdRgvDNIgL5Zo4_y-83" value="" style="shape=partialRectangle;overflow=hidden;connectable=0;fillColor=none;top=0;left=0;bottom=0;right=0;" vertex="1" parent="TNNoIdRgvDNIgL5Zo4_y-82">
          <mxGeometry width="30" height="30" as="geometry">
            <mxRectangle width="30" height="30" as="alternateBounds" />
          </mxGeometry>
        </mxCell>
        <mxCell id="TNNoIdRgvDNIgL5Zo4_y-84" value="holiday" style="shape=partialRectangle;overflow=hidden;connectable=0;fillColor=none;top=0;left=0;bottom=0;right=0;align=left;spacingLeft=6;" vertex="1" parent="TNNoIdRgvDNIgL5Zo4_y-82">
          <mxGeometry x="30" width="220" height="30" as="geometry">
            <mxRectangle width="220" height="30" as="alternateBounds" />
          </mxGeometry>
        </mxCell>
        <mxCell id="TNNoIdRgvDNIgL5Zo4_y-85" value="" style="shape=partialRectangle;collapsible=0;dropTarget=0;pointerEvents=0;fillColor=none;points=[[0,0.5],[1,0.5]];portConstraint=eastwest;top=0;left=0;right=0;bottom=0;" vertex="1" parent="TNNoIdRgvDNIgL5Zo4_y-65">
          <mxGeometry y="210" width="250" height="30" as="geometry" />
        </mxCell>
        <mxCell id="TNNoIdRgvDNIgL5Zo4_y-86" value="" style="shape=partialRectangle;overflow=hidden;connectable=0;fillColor=none;top=0;left=0;bottom=0;right=0;" vertex="1" parent="TNNoIdRgvDNIgL5Zo4_y-85">
          <mxGeometry width="30" height="30" as="geometry">
            <mxRectangle width="30" height="30" as="alternateBounds" />
          </mxGeometry>
        </mxCell>
        <mxCell id="TNNoIdRgvDNIgL5Zo4_y-87" value="weekend" style="shape=partialRectangle;overflow=hidden;connectable=0;fillColor=none;top=0;left=0;bottom=0;right=0;align=left;spacingLeft=6;" vertex="1" parent="TNNoIdRgvDNIgL5Zo4_y-85">
          <mxGeometry x="30" width="220" height="30" as="geometry">
            <mxRectangle width="220" height="30" as="alternateBounds" />
          </mxGeometry>
        </mxCell>
        <mxCell id="TNNoIdRgvDNIgL5Zo4_y-88" value="" style="shape=partialRectangle;collapsible=0;dropTarget=0;pointerEvents=0;fillColor=none;points=[[0,0.5],[1,0.5]];portConstraint=eastwest;top=0;left=0;right=0;bottom=0;" vertex="1" parent="TNNoIdRgvDNIgL5Zo4_y-65">
          <mxGeometry y="240" width="250" height="30" as="geometry" />
        </mxCell>
        <mxCell id="TNNoIdRgvDNIgL5Zo4_y-89" value="" style="shape=partialRectangle;overflow=hidden;connectable=0;fillColor=none;top=0;left=0;bottom=0;right=0;" vertex="1" parent="TNNoIdRgvDNIgL5Zo4_y-88">
          <mxGeometry width="30" height="30" as="geometry">
            <mxRectangle width="30" height="30" as="alternateBounds" />
          </mxGeometry>
        </mxCell>
        <mxCell id="TNNoIdRgvDNIgL5Zo4_y-90" value="day_of_week" style="shape=partialRectangle;overflow=hidden;connectable=0;fillColor=none;top=0;left=0;bottom=0;right=0;align=left;spacingLeft=6;" vertex="1" parent="TNNoIdRgvDNIgL5Zo4_y-88">
          <mxGeometry x="30" width="220" height="30" as="geometry">
            <mxRectangle width="220" height="30" as="alternateBounds" />
          </mxGeometry>
        </mxCell>
        <mxCell id="TNNoIdRgvDNIgL5Zo4_y-81" value="" style="edgeStyle=elbowEdgeStyle;endArrow=none;startArrow=none;endFill=0;startFill=0;entryX=1;entryY=0.5;entryDx=0;entryDy=0;exitX=0;exitY=0.5;exitDx=0;exitDy=0;" edge="1" parent="1" source="TNNoIdRgvDNIgL5Zo4_y-66" target="TNNoIdRgvDNIgL5Zo4_y-4">
          <mxGeometry width="100" height="100" relative="1" as="geometry">
            <mxPoint x="525" y="680" as="sourcePoint" />
            <mxPoint x="635" y="420" as="targetPoint" />
            <Array as="points">
              <mxPoint x="640" y="520" />
            </Array>
          </mxGeometry>
        </mxCell>
        <mxCell id="TNNoIdRgvDNIgL5Zo4_y-94" value="1" style="text;strokeColor=none;align=center;fillColor=none;html=1;verticalAlign=middle;whiteSpace=wrap;rounded=0;" vertex="1" parent="1">
          <mxGeometry x="210" y="70" width="50" height="20" as="geometry" />
        </mxCell>
        <mxCell id="TNNoIdRgvDNIgL5Zo4_y-95" value="1" style="text;strokeColor=none;align=center;fillColor=none;html=1;verticalAlign=middle;whiteSpace=wrap;rounded=0;" vertex="1" parent="1">
          <mxGeometry x="210" y="290" width="50" height="20" as="geometry" />
        </mxCell>
        <mxCell id="TNNoIdRgvDNIgL5Zo4_y-98" value="1" style="text;strokeColor=none;align=center;fillColor=none;html=1;verticalAlign=middle;whiteSpace=wrap;rounded=0;" vertex="1" parent="1">
          <mxGeometry x="200" y="530" width="50" height="20" as="geometry" />
        </mxCell>
        <mxCell id="TNNoIdRgvDNIgL5Zo4_y-99" value="1" style="text;strokeColor=none;align=center;fillColor=none;html=1;verticalAlign=middle;whiteSpace=wrap;rounded=0;" vertex="1" parent="1">
          <mxGeometry x="720" y="40" width="50" height="20" as="geometry" />
        </mxCell>
        <mxCell id="TNNoIdRgvDNIgL5Zo4_y-100" value="1" style="text;strokeColor=none;align=center;fillColor=none;html=1;verticalAlign=middle;whiteSpace=wrap;rounded=0;" vertex="1" parent="1">
          <mxGeometry x="620" y="490" width="50" height="20" as="geometry" />
        </mxCell>
        <mxCell id="TNNoIdRgvDNIgL5Zo4_y-101" value="&lt;img style=&quot;border: 0px; vertical-align: -0.338ex; margin: 0px; display: inline-block; --color-base: #202122; --color-base--hover: #404244; --color-emphasized: #000; --color-subtle: #54595d; --color-placeholder: #72777d; --color-disabled: #72777d; --color-inverted: #fff; --color-inverted-fixed: #fff; --color-progressive: #36c; --color-progressive--hover: #447ff5; --color-progressive--active: #2a4b8d; --color-progressive--focus: #36c; --color-destructive: #d73333; --color-destructive--hover: #ff4242; --color-destructive--active: #b32424; --color-destructive--focus: #36c; --color-visited: #6b4ba1; --color-destructive--visited: #a55858; --color-error: #d73333; --color-warning: #edab00; --color-success: #14866d; --color-notice: #202122; --color-content-added: #36c; --color-content-removed: #a66200; --color-base--subtle: #72777d; --color-link-red: #d73333; --color-link-red--hover: #ff4242; --color-link-red--active: #b32424; --color-link-red--focus: #36c; --color-link-red--visited: #a55858; --filter-invert-icon: 0; --filter-invert-primary-button-icon: 1; --box-shadow-color-base: #000; --box-shadow-color-progressive--active: #2a4b8d; --box-shadow-color-progressive--focus: #36c; --box-shadow-color-progressive-selected: #36c; --box-shadow-color-progressive-selected--hover: #447ff5; --box-shadow-color-progressive-selected--active: #2a4b8d; --box-shadow-color-destructive--focus: #36c; --box-shadow-color-inverted: #fff; --box-shadow-color-transparent: transparent; --background-color-interactive: #eaecf0; --background-color-interactive-subtle: #f8f9fa; --background-color-disabled: #c8ccd1; --background-color-disabled-subtle: #eaecf0; --background-color-progressive: #36c; --background-color-progressive--hover: #447ff5; --background-color-progressive--active: #2a4b8d; --background-color-progressive--focus: #36c; --background-color-progressive-subtle: #eaf3ff; --background-color-destructive: #d73333; --background-color-destructive--hover: #ff4242; --background-color-destructive--active: #b32424; --background-color-destructive--focus: #36c; --background-color-destructive-subtle: #fee7e6; --background-color-error: #d73333; --background-color-error--hover: #ff4242; --background-color-error--active: #b32424; --background-color-error-subtle: #fee7e6; --background-color-warning-subtle: #fef6e7; --background-color-success-subtle: #d5fdf4; --background-color-notice-subtle: #eaecf0; --background-color-content-added: #6d8af2; --background-color-content-removed: #ad822b; --background-color-backdrop-light: rgba(255,255,255,0.65); --background-color-backdrop-dark: rgba(0,0,0,0.65); --background-color-base: #fff; --background-color-base-fixed: #fff; --background-color-neutral: #eaecf0; --background-color-neutral-subtle: #f8f9fa; --background-color-transparent: transparent; --background-color-button-quiet--hover: rgba(0,24,73,0.027); --background-color-button-quiet--active: rgba(0,24,73,0.082); --background-color-input-binary--checked: #36c; --background-color-tab-list-item-framed--hover: rgba(255,255,255,0.3); --background-color-tab-list-item-framed--active: rgba(255,255,255,0.65); --opacity-icon-base: 0.87; --opacity-icon-base--hover: 0.74; --opacity-icon-base--selected: 1; --opacity-icon-base--disabled: 0.51; --opacity-icon-placeholder: 0.51; --opacity-icon-subtle: 0.67; --border-color-base: #a2a9b1; --border-color-interactive: #72777d; --border-color-disabled: #c8ccd1; --border-color-subtle: #c8ccd1; --border-color-muted: #eaecf0; --border-color-inverted: #fff; --border-color-progressive: #36c; --border-color-progressive--hover: #447ff5; --border-color-progressive--active: #2a4b8d; --border-color-progressive--focus: #36c; --border-color-destructive: #d73333; --border-color-destructive--hover: #ff4242; --border-color-destructive--active: #b32424; --border-color-destructive--focus: #36c; --border-color-error: #b32424; --border-color-error--hover: #ff4242; --border-color-warning: #a66200; --border-color-success: #096450; --border-color-notice: #54595d; --border-color-content-added: #6d8af2; --border-color-content-removed: #ad822b; --border-color-transparent: transparent; --border-color-divider: #a2a9b1; --border-color-input--hover: #72777d; --border-color-input-binary: #72777d; --border-color-input-binary--hover: #447ff5; --border-color-input-binary--active: #2a4b8d; --border-color-input-binary--focus: #36c; --border-color-input-binary--checked: #36c; --border-base: 1px solid #a2a9b1; --border-subtle: 1px solid #c8ccd1; --border-progressive: 1px solid #36c; --border-destructive: 1px solid #d73333; --outline-color-progressive--focus: #36c; color: rgb(32, 33, 34); font-family: sans-serif; font-size: 14px; text-align: start; background-color: rgb(255, 255, 255); width: 2.324ex; height: 1.676ex;&quot; alt=&quot;{\displaystyle \infty }&quot; aria-hidden=&quot;true&quot; class=&quot;mwe-math-fallback-image-inline mw-invert skin-invert&quot; src=&quot;https://wikimedia.org/api/rest_v1/media/math/render/svg/c26c105004f30c27aa7c2a9c601550a4183b1f21&quot;&gt;" style="text;strokeColor=none;align=center;fillColor=none;html=1;verticalAlign=middle;whiteSpace=wrap;rounded=0;" vertex="1" parent="1">
          <mxGeometry x="332" y="327" width="50" height="20" as="geometry" />
        </mxCell>
        <mxCell id="TNNoIdRgvDNIgL5Zo4_y-102" value="&lt;img style=&quot;border: 0px; vertical-align: -0.338ex; margin: 0px; display: inline-block; --color-base: #202122; --color-base--hover: #404244; --color-emphasized: #000; --color-subtle: #54595d; --color-placeholder: #72777d; --color-disabled: #72777d; --color-inverted: #fff; --color-inverted-fixed: #fff; --color-progressive: #36c; --color-progressive--hover: #447ff5; --color-progressive--active: #2a4b8d; --color-progressive--focus: #36c; --color-destructive: #d73333; --color-destructive--hover: #ff4242; --color-destructive--active: #b32424; --color-destructive--focus: #36c; --color-visited: #6b4ba1; --color-destructive--visited: #a55858; --color-error: #d73333; --color-warning: #edab00; --color-success: #14866d; --color-notice: #202122; --color-content-added: #36c; --color-content-removed: #a66200; --color-base--subtle: #72777d; --color-link-red: #d73333; --color-link-red--hover: #ff4242; --color-link-red--active: #b32424; --color-link-red--focus: #36c; --color-link-red--visited: #a55858; --filter-invert-icon: 0; --filter-invert-primary-button-icon: 1; --box-shadow-color-base: #000; --box-shadow-color-progressive--active: #2a4b8d; --box-shadow-color-progressive--focus: #36c; --box-shadow-color-progressive-selected: #36c; --box-shadow-color-progressive-selected--hover: #447ff5; --box-shadow-color-progressive-selected--active: #2a4b8d; --box-shadow-color-destructive--focus: #36c; --box-shadow-color-inverted: #fff; --box-shadow-color-transparent: transparent; --background-color-interactive: #eaecf0; --background-color-interactive-subtle: #f8f9fa; --background-color-disabled: #c8ccd1; --background-color-disabled-subtle: #eaecf0; --background-color-progressive: #36c; --background-color-progressive--hover: #447ff5; --background-color-progressive--active: #2a4b8d; --background-color-progressive--focus: #36c; --background-color-progressive-subtle: #eaf3ff; --background-color-destructive: #d73333; --background-color-destructive--hover: #ff4242; --background-color-destructive--active: #b32424; --background-color-destructive--focus: #36c; --background-color-destructive-subtle: #fee7e6; --background-color-error: #d73333; --background-color-error--hover: #ff4242; --background-color-error--active: #b32424; --background-color-error-subtle: #fee7e6; --background-color-warning-subtle: #fef6e7; --background-color-success-subtle: #d5fdf4; --background-color-notice-subtle: #eaecf0; --background-color-content-added: #6d8af2; --background-color-content-removed: #ad822b; --background-color-backdrop-light: rgba(255,255,255,0.65); --background-color-backdrop-dark: rgba(0,0,0,0.65); --background-color-base: #fff; --background-color-base-fixed: #fff; --background-color-neutral: #eaecf0; --background-color-neutral-subtle: #f8f9fa; --background-color-transparent: transparent; --background-color-button-quiet--hover: rgba(0,24,73,0.027); --background-color-button-quiet--active: rgba(0,24,73,0.082); --background-color-input-binary--checked: #36c; --background-color-tab-list-item-framed--hover: rgba(255,255,255,0.3); --background-color-tab-list-item-framed--active: rgba(255,255,255,0.65); --opacity-icon-base: 0.87; --opacity-icon-base--hover: 0.74; --opacity-icon-base--selected: 1; --opacity-icon-base--disabled: 0.51; --opacity-icon-placeholder: 0.51; --opacity-icon-subtle: 0.67; --border-color-base: #a2a9b1; --border-color-interactive: #72777d; --border-color-disabled: #c8ccd1; --border-color-subtle: #c8ccd1; --border-color-muted: #eaecf0; --border-color-inverted: #fff; --border-color-progressive: #36c; --border-color-progressive--hover: #447ff5; --border-color-progressive--active: #2a4b8d; --border-color-progressive--focus: #36c; --border-color-destructive: #d73333; --border-color-destructive--hover: #ff4242; --border-color-destructive--active: #b32424; --border-color-destructive--focus: #36c; --border-color-error: #b32424; --border-color-error--hover: #ff4242; --border-color-warning: #a66200; --border-color-success: #096450; --border-color-notice: #54595d; --border-color-content-added: #6d8af2; --border-color-content-removed: #ad822b; --border-color-transparent: transparent; --border-color-divider: #a2a9b1; --border-color-input--hover: #72777d; --border-color-input-binary: #72777d; --border-color-input-binary--hover: #447ff5; --border-color-input-binary--active: #2a4b8d; --border-color-input-binary--focus: #36c; --border-color-input-binary--checked: #36c; --border-base: 1px solid #a2a9b1; --border-subtle: 1px solid #c8ccd1; --border-progressive: 1px solid #36c; --border-destructive: 1px solid #d73333; --outline-color-progressive--focus: #36c; color: rgb(32, 33, 34); font-family: sans-serif; font-size: 14px; text-align: start; background-color: rgb(255, 255, 255); width: 2.324ex; height: 1.676ex;&quot; alt=&quot;{\displaystyle \infty }&quot; aria-hidden=&quot;true&quot; class=&quot;mwe-math-fallback-image-inline mw-invert skin-invert&quot; src=&quot;https://wikimedia.org/api/rest_v1/media/math/render/svg/c26c105004f30c27aa7c2a9c601550a4183b1f21&quot;&gt;" style="text;strokeColor=none;align=center;fillColor=none;html=1;verticalAlign=middle;whiteSpace=wrap;rounded=0;" vertex="1" parent="1">
          <mxGeometry x="332" y="357" width="50" height="20" as="geometry" />
        </mxCell>
        <mxCell id="TNNoIdRgvDNIgL5Zo4_y-104" value="&lt;img style=&quot;border: 0px; vertical-align: -0.338ex; margin: 0px; display: inline-block; --color-base: #202122; --color-base--hover: #404244; --color-emphasized: #000; --color-subtle: #54595d; --color-placeholder: #72777d; --color-disabled: #72777d; --color-inverted: #fff; --color-inverted-fixed: #fff; --color-progressive: #36c; --color-progressive--hover: #447ff5; --color-progressive--active: #2a4b8d; --color-progressive--focus: #36c; --color-destructive: #d73333; --color-destructive--hover: #ff4242; --color-destructive--active: #b32424; --color-destructive--focus: #36c; --color-visited: #6b4ba1; --color-destructive--visited: #a55858; --color-error: #d73333; --color-warning: #edab00; --color-success: #14866d; --color-notice: #202122; --color-content-added: #36c; --color-content-removed: #a66200; --color-base--subtle: #72777d; --color-link-red: #d73333; --color-link-red--hover: #ff4242; --color-link-red--active: #b32424; --color-link-red--focus: #36c; --color-link-red--visited: #a55858; --filter-invert-icon: 0; --filter-invert-primary-button-icon: 1; --box-shadow-color-base: #000; --box-shadow-color-progressive--active: #2a4b8d; --box-shadow-color-progressive--focus: #36c; --box-shadow-color-progressive-selected: #36c; --box-shadow-color-progressive-selected--hover: #447ff5; --box-shadow-color-progressive-selected--active: #2a4b8d; --box-shadow-color-destructive--focus: #36c; --box-shadow-color-inverted: #fff; --box-shadow-color-transparent: transparent; --background-color-interactive: #eaecf0; --background-color-interactive-subtle: #f8f9fa; --background-color-disabled: #c8ccd1; --background-color-disabled-subtle: #eaecf0; --background-color-progressive: #36c; --background-color-progressive--hover: #447ff5; --background-color-progressive--active: #2a4b8d; --background-color-progressive--focus: #36c; --background-color-progressive-subtle: #eaf3ff; --background-color-destructive: #d73333; --background-color-destructive--hover: #ff4242; --background-color-destructive--active: #b32424; --background-color-destructive--focus: #36c; --background-color-destructive-subtle: #fee7e6; --background-color-error: #d73333; --background-color-error--hover: #ff4242; --background-color-error--active: #b32424; --background-color-error-subtle: #fee7e6; --background-color-warning-subtle: #fef6e7; --background-color-success-subtle: #d5fdf4; --background-color-notice-subtle: #eaecf0; --background-color-content-added: #6d8af2; --background-color-content-removed: #ad822b; --background-color-backdrop-light: rgba(255,255,255,0.65); --background-color-backdrop-dark: rgba(0,0,0,0.65); --background-color-base: #fff; --background-color-base-fixed: #fff; --background-color-neutral: #eaecf0; --background-color-neutral-subtle: #f8f9fa; --background-color-transparent: transparent; --background-color-button-quiet--hover: rgba(0,24,73,0.027); --background-color-button-quiet--active: rgba(0,24,73,0.082); --background-color-input-binary--checked: #36c; --background-color-tab-list-item-framed--hover: rgba(255,255,255,0.3); --background-color-tab-list-item-framed--active: rgba(255,255,255,0.65); --opacity-icon-base: 0.87; --opacity-icon-base--hover: 0.74; --opacity-icon-base--selected: 1; --opacity-icon-base--disabled: 0.51; --opacity-icon-placeholder: 0.51; --opacity-icon-subtle: 0.67; --border-color-base: #a2a9b1; --border-color-interactive: #72777d; --border-color-disabled: #c8ccd1; --border-color-subtle: #c8ccd1; --border-color-muted: #eaecf0; --border-color-inverted: #fff; --border-color-progressive: #36c; --border-color-progressive--hover: #447ff5; --border-color-progressive--active: #2a4b8d; --border-color-progressive--focus: #36c; --border-color-destructive: #d73333; --border-color-destructive--hover: #ff4242; --border-color-destructive--active: #b32424; --border-color-destructive--focus: #36c; --border-color-error: #b32424; --border-color-error--hover: #ff4242; --border-color-warning: #a66200; --border-color-success: #096450; --border-color-notice: #54595d; --border-color-content-added: #6d8af2; --border-color-content-removed: #ad822b; --border-color-transparent: transparent; --border-color-divider: #a2a9b1; --border-color-input--hover: #72777d; --border-color-input-binary: #72777d; --border-color-input-binary--hover: #447ff5; --border-color-input-binary--active: #2a4b8d; --border-color-input-binary--focus: #36c; --border-color-input-binary--checked: #36c; --border-base: 1px solid #a2a9b1; --border-subtle: 1px solid #c8ccd1; --border-progressive: 1px solid #36c; --border-destructive: 1px solid #d73333; --outline-color-progressive--focus: #36c; color: rgb(32, 33, 34); font-family: sans-serif; font-size: 14px; text-align: start; background-color: rgb(255, 255, 255); width: 2.324ex; height: 1.676ex;&quot; alt=&quot;{\displaystyle \infty }&quot; aria-hidden=&quot;true&quot; class=&quot;mwe-math-fallback-image-inline mw-invert skin-invert&quot; src=&quot;https://wikimedia.org/api/rest_v1/media/math/render/svg/c26c105004f30c27aa7c2a9c601550a4183b1f21&quot;&gt;" style="text;strokeColor=none;align=center;fillColor=none;html=1;verticalAlign=middle;whiteSpace=wrap;rounded=0;" vertex="1" parent="1">
          <mxGeometry x="335" y="385" width="50" height="20" as="geometry" />
        </mxCell>
        <mxCell id="TNNoIdRgvDNIgL5Zo4_y-105" value="&lt;img style=&quot;border: 0px; vertical-align: -0.338ex; margin: 0px; display: inline-block; --color-base: #202122; --color-base--hover: #404244; --color-emphasized: #000; --color-subtle: #54595d; --color-placeholder: #72777d; --color-disabled: #72777d; --color-inverted: #fff; --color-inverted-fixed: #fff; --color-progressive: #36c; --color-progressive--hover: #447ff5; --color-progressive--active: #2a4b8d; --color-progressive--focus: #36c; --color-destructive: #d73333; --color-destructive--hover: #ff4242; --color-destructive--active: #b32424; --color-destructive--focus: #36c; --color-visited: #6b4ba1; --color-destructive--visited: #a55858; --color-error: #d73333; --color-warning: #edab00; --color-success: #14866d; --color-notice: #202122; --color-content-added: #36c; --color-content-removed: #a66200; --color-base--subtle: #72777d; --color-link-red: #d73333; --color-link-red--hover: #ff4242; --color-link-red--active: #b32424; --color-link-red--focus: #36c; --color-link-red--visited: #a55858; --filter-invert-icon: 0; --filter-invert-primary-button-icon: 1; --box-shadow-color-base: #000; --box-shadow-color-progressive--active: #2a4b8d; --box-shadow-color-progressive--focus: #36c; --box-shadow-color-progressive-selected: #36c; --box-shadow-color-progressive-selected--hover: #447ff5; --box-shadow-color-progressive-selected--active: #2a4b8d; --box-shadow-color-destructive--focus: #36c; --box-shadow-color-inverted: #fff; --box-shadow-color-transparent: transparent; --background-color-interactive: #eaecf0; --background-color-interactive-subtle: #f8f9fa; --background-color-disabled: #c8ccd1; --background-color-disabled-subtle: #eaecf0; --background-color-progressive: #36c; --background-color-progressive--hover: #447ff5; --background-color-progressive--active: #2a4b8d; --background-color-progressive--focus: #36c; --background-color-progressive-subtle: #eaf3ff; --background-color-destructive: #d73333; --background-color-destructive--hover: #ff4242; --background-color-destructive--active: #b32424; --background-color-destructive--focus: #36c; --background-color-destructive-subtle: #fee7e6; --background-color-error: #d73333; --background-color-error--hover: #ff4242; --background-color-error--active: #b32424; --background-color-error-subtle: #fee7e6; --background-color-warning-subtle: #fef6e7; --background-color-success-subtle: #d5fdf4; --background-color-notice-subtle: #eaecf0; --background-color-content-added: #6d8af2; --background-color-content-removed: #ad822b; --background-color-backdrop-light: rgba(255,255,255,0.65); --background-color-backdrop-dark: rgba(0,0,0,0.65); --background-color-base: #fff; --background-color-base-fixed: #fff; --background-color-neutral: #eaecf0; --background-color-neutral-subtle: #f8f9fa; --background-color-transparent: transparent; --background-color-button-quiet--hover: rgba(0,24,73,0.027); --background-color-button-quiet--active: rgba(0,24,73,0.082); --background-color-input-binary--checked: #36c; --background-color-tab-list-item-framed--hover: rgba(255,255,255,0.3); --background-color-tab-list-item-framed--active: rgba(255,255,255,0.65); --opacity-icon-base: 0.87; --opacity-icon-base--hover: 0.74; --opacity-icon-base--selected: 1; --opacity-icon-base--disabled: 0.51; --opacity-icon-placeholder: 0.51; --opacity-icon-subtle: 0.67; --border-color-base: #a2a9b1; --border-color-interactive: #72777d; --border-color-disabled: #c8ccd1; --border-color-subtle: #c8ccd1; --border-color-muted: #eaecf0; --border-color-inverted: #fff; --border-color-progressive: #36c; --border-color-progressive--hover: #447ff5; --border-color-progressive--active: #2a4b8d; --border-color-progressive--focus: #36c; --border-color-destructive: #d73333; --border-color-destructive--hover: #ff4242; --border-color-destructive--active: #b32424; --border-color-destructive--focus: #36c; --border-color-error: #b32424; --border-color-error--hover: #ff4242; --border-color-warning: #a66200; --border-color-success: #096450; --border-color-notice: #54595d; --border-color-content-added: #6d8af2; --border-color-content-removed: #ad822b; --border-color-transparent: transparent; --border-color-divider: #a2a9b1; --border-color-input--hover: #72777d; --border-color-input-binary: #72777d; --border-color-input-binary--hover: #447ff5; --border-color-input-binary--active: #2a4b8d; --border-color-input-binary--focus: #36c; --border-color-input-binary--checked: #36c; --border-base: 1px solid #a2a9b1; --border-subtle: 1px solid #c8ccd1; --border-progressive: 1px solid #36c; --border-destructive: 1px solid #d73333; --outline-color-progressive--focus: #36c; color: rgb(32, 33, 34); font-family: sans-serif; font-size: 14px; text-align: start; background-color: rgb(255, 255, 255); width: 2.324ex; height: 1.676ex;&quot; alt=&quot;{\displaystyle \infty }&quot; aria-hidden=&quot;true&quot; class=&quot;mwe-math-fallback-image-inline mw-invert skin-invert&quot; src=&quot;https://wikimedia.org/api/rest_v1/media/math/render/svg/c26c105004f30c27aa7c2a9c601550a4183b1f21&quot;&gt;" style="text;strokeColor=none;align=center;fillColor=none;html=1;verticalAlign=middle;whiteSpace=wrap;rounded=0;" vertex="1" parent="1">
          <mxGeometry x="606" y="415" width="50" height="20" as="geometry" />
        </mxCell>
        <mxCell id="TNNoIdRgvDNIgL5Zo4_y-106" value="1" style="text;strokeColor=none;align=center;fillColor=none;html=1;verticalAlign=middle;whiteSpace=wrap;rounded=0;" vertex="1" parent="1">
          <mxGeometry x="603" y="296" width="50" height="20" as="geometry" />
        </mxCell>
        <mxCell id="TNNoIdRgvDNIgL5Zo4_y-108" value="Employee_shifts" style="shape=table;startSize=30;container=1;collapsible=1;childLayout=tableLayout;fixedRows=1;rowLines=0;fontStyle=1;align=center;resizeLast=1;" vertex="1" parent="1">
          <mxGeometry x="280" y="750" width="250" height="210" as="geometry" />
        </mxCell>
        <mxCell id="TNNoIdRgvDNIgL5Zo4_y-109" value="" style="shape=partialRectangle;collapsible=0;dropTarget=0;pointerEvents=0;fillColor=none;points=[[0,0.5],[1,0.5]];portConstraint=eastwest;top=0;left=0;right=0;bottom=1;" vertex="1" parent="TNNoIdRgvDNIgL5Zo4_y-108">
          <mxGeometry y="30" width="250" height="30" as="geometry" />
        </mxCell>
        <mxCell id="TNNoIdRgvDNIgL5Zo4_y-110" value="PK" style="shape=partialRectangle;overflow=hidden;connectable=0;fillColor=none;top=0;left=0;bottom=0;right=0;fontStyle=1;" vertex="1" parent="TNNoIdRgvDNIgL5Zo4_y-109">
          <mxGeometry width="30" height="30" as="geometry">
            <mxRectangle width="30" height="30" as="alternateBounds" />
          </mxGeometry>
        </mxCell>
        <mxCell id="TNNoIdRgvDNIgL5Zo4_y-111" value="date" style="shape=partialRectangle;overflow=hidden;connectable=0;fillColor=none;top=0;left=0;bottom=0;right=0;align=left;spacingLeft=6;fontStyle=5;" vertex="1" parent="TNNoIdRgvDNIgL5Zo4_y-109">
          <mxGeometry x="30" width="220" height="30" as="geometry">
            <mxRectangle width="220" height="30" as="alternateBounds" />
          </mxGeometry>
        </mxCell>
        <mxCell id="TNNoIdRgvDNIgL5Zo4_y-112" value="" style="shape=partialRectangle;collapsible=0;dropTarget=0;pointerEvents=0;fillColor=none;points=[[0,0.5],[1,0.5]];portConstraint=eastwest;top=0;left=0;right=0;bottom=0;" vertex="1" parent="TNNoIdRgvDNIgL5Zo4_y-108">
          <mxGeometry y="60" width="250" height="30" as="geometry" />
        </mxCell>
        <mxCell id="TNNoIdRgvDNIgL5Zo4_y-113" value="FK1" style="shape=partialRectangle;overflow=hidden;connectable=0;fillColor=none;top=0;left=0;bottom=0;right=0;" vertex="1" parent="TNNoIdRgvDNIgL5Zo4_y-112">
          <mxGeometry width="30" height="30" as="geometry">
            <mxRectangle width="30" height="30" as="alternateBounds" />
          </mxGeometry>
        </mxCell>
        <mxCell id="TNNoIdRgvDNIgL5Zo4_y-114" value="employee_id" style="shape=partialRectangle;overflow=hidden;connectable=0;fillColor=none;top=0;left=0;bottom=0;right=0;align=left;spacingLeft=6;" vertex="1" parent="TNNoIdRgvDNIgL5Zo4_y-112">
          <mxGeometry x="30" width="220" height="30" as="geometry">
            <mxRectangle width="220" height="30" as="alternateBounds" />
          </mxGeometry>
        </mxCell>
        <mxCell id="TNNoIdRgvDNIgL5Zo4_y-115" value="" style="shape=partialRectangle;collapsible=0;dropTarget=0;pointerEvents=0;fillColor=none;points=[[0,0.5],[1,0.5]];portConstraint=eastwest;top=0;left=0;right=0;bottom=0;" vertex="1" parent="TNNoIdRgvDNIgL5Zo4_y-108">
          <mxGeometry y="90" width="250" height="30" as="geometry" />
        </mxCell>
        <mxCell id="TNNoIdRgvDNIgL5Zo4_y-116" value="" style="shape=partialRectangle;overflow=hidden;connectable=0;fillColor=none;top=0;left=0;bottom=0;right=0;" vertex="1" parent="TNNoIdRgvDNIgL5Zo4_y-115">
          <mxGeometry width="30" height="30" as="geometry">
            <mxRectangle width="30" height="30" as="alternateBounds" />
          </mxGeometry>
        </mxCell>
        <mxCell id="TNNoIdRgvDNIgL5Zo4_y-117" value="morning_shift" style="shape=partialRectangle;overflow=hidden;connectable=0;fillColor=none;top=0;left=0;bottom=0;right=0;align=left;spacingLeft=6;" vertex="1" parent="TNNoIdRgvDNIgL5Zo4_y-115">
          <mxGeometry x="30" width="220" height="30" as="geometry">
            <mxRectangle width="220" height="30" as="alternateBounds" />
          </mxGeometry>
        </mxCell>
        <mxCell id="TNNoIdRgvDNIgL5Zo4_y-118" value="" style="shape=partialRectangle;collapsible=0;dropTarget=0;pointerEvents=0;fillColor=none;points=[[0,0.5],[1,0.5]];portConstraint=eastwest;top=0;left=0;right=0;bottom=0;" vertex="1" parent="TNNoIdRgvDNIgL5Zo4_y-108">
          <mxGeometry y="120" width="250" height="30" as="geometry" />
        </mxCell>
        <mxCell id="TNNoIdRgvDNIgL5Zo4_y-119" value="" style="shape=partialRectangle;overflow=hidden;connectable=0;fillColor=none;top=0;left=0;bottom=0;right=0;" vertex="1" parent="TNNoIdRgvDNIgL5Zo4_y-118">
          <mxGeometry width="30" height="30" as="geometry">
            <mxRectangle width="30" height="30" as="alternateBounds" />
          </mxGeometry>
        </mxCell>
        <mxCell id="TNNoIdRgvDNIgL5Zo4_y-120" value="evening_shift" style="shape=partialRectangle;overflow=hidden;connectable=0;fillColor=none;top=0;left=0;bottom=0;right=0;align=left;spacingLeft=6;" vertex="1" parent="TNNoIdRgvDNIgL5Zo4_y-118">
          <mxGeometry x="30" width="220" height="30" as="geometry">
            <mxRectangle width="220" height="30" as="alternateBounds" />
          </mxGeometry>
        </mxCell>
        <mxCell id="TNNoIdRgvDNIgL5Zo4_y-121" value="" style="shape=partialRectangle;collapsible=0;dropTarget=0;pointerEvents=0;fillColor=none;points=[[0,0.5],[1,0.5]];portConstraint=eastwest;top=0;left=0;right=0;bottom=0;" vertex="1" parent="TNNoIdRgvDNIgL5Zo4_y-108">
          <mxGeometry y="150" width="250" height="30" as="geometry" />
        </mxCell>
        <mxCell id="TNNoIdRgvDNIgL5Zo4_y-122" value="" style="shape=partialRectangle;overflow=hidden;connectable=0;fillColor=none;top=0;left=0;bottom=0;right=0;" vertex="1" parent="TNNoIdRgvDNIgL5Zo4_y-121">
          <mxGeometry width="30" height="30" as="geometry">
            <mxRectangle width="30" height="30" as="alternateBounds" />
          </mxGeometry>
        </mxCell>
        <mxCell id="TNNoIdRgvDNIgL5Zo4_y-123" value="phone_no" style="shape=partialRectangle;overflow=hidden;connectable=0;fillColor=none;top=0;left=0;bottom=0;right=0;align=left;spacingLeft=6;" vertex="1" parent="TNNoIdRgvDNIgL5Zo4_y-121">
          <mxGeometry x="30" width="220" height="30" as="geometry">
            <mxRectangle width="220" height="30" as="alternateBounds" />
          </mxGeometry>
        </mxCell>
        <mxCell id="TNNoIdRgvDNIgL5Zo4_y-124" value="" style="shape=partialRectangle;collapsible=0;dropTarget=0;pointerEvents=0;fillColor=none;points=[[0,0.5],[1,0.5]];portConstraint=eastwest;top=0;left=0;right=0;bottom=0;" vertex="1" parent="TNNoIdRgvDNIgL5Zo4_y-108">
          <mxGeometry y="180" width="250" height="30" as="geometry" />
        </mxCell>
        <mxCell id="TNNoIdRgvDNIgL5Zo4_y-125" value="" style="shape=partialRectangle;overflow=hidden;connectable=0;fillColor=none;top=0;left=0;bottom=0;right=0;" vertex="1" parent="TNNoIdRgvDNIgL5Zo4_y-124">
          <mxGeometry width="30" height="30" as="geometry">
            <mxRectangle width="30" height="30" as="alternateBounds" />
          </mxGeometry>
        </mxCell>
        <mxCell id="TNNoIdRgvDNIgL5Zo4_y-126" value="address" style="shape=partialRectangle;overflow=hidden;connectable=0;fillColor=none;top=0;left=0;bottom=0;right=0;align=left;spacingLeft=6;" vertex="1" parent="TNNoIdRgvDNIgL5Zo4_y-124">
          <mxGeometry x="30" width="220" height="30" as="geometry">
            <mxRectangle width="220" height="30" as="alternateBounds" />
          </mxGeometry>
        </mxCell>
        <mxCell id="TNNoIdRgvDNIgL5Zo4_y-127" value="" style="edgeStyle=elbowEdgeStyle;endArrow=none;startArrow=none;endFill=0;startFill=0;exitX=0;exitY=0.5;exitDx=0;exitDy=0;entryX=0;entryY=0.5;entryDx=0;entryDy=0;" edge="1" parent="1" source="TNNoIdRgvDNIgL5Zo4_y-46" target="TNNoIdRgvDNIgL5Zo4_y-112">
          <mxGeometry width="100" height="100" relative="1" as="geometry">
            <mxPoint x="-250" y="510" as="sourcePoint" />
            <mxPoint x="70" y="1003" as="targetPoint" />
            <Array as="points">
              <mxPoint x="-100" y="530" />
            </Array>
          </mxGeometry>
        </mxCell>
        <mxCell id="TNNoIdRgvDNIgL5Zo4_y-128" value="" style="edgeStyle=elbowEdgeStyle;endArrow=none;startArrow=none;endFill=0;startFill=0;exitX=1;exitY=0.5;exitDx=0;exitDy=0;entryX=1;entryY=0.5;entryDx=0;entryDy=0;" edge="1" parent="1" source="TNNoIdRgvDNIgL5Zo4_y-109" target="TNNoIdRgvDNIgL5Zo4_y-66">
          <mxGeometry width="100" height="100" relative="1" as="geometry">
            <mxPoint x="530" y="830" as="sourcePoint" />
            <mxPoint x="690" y="690" as="targetPoint" />
            <Array as="points">
              <mxPoint x="920" y="670" />
            </Array>
          </mxGeometry>
        </mxCell>
        <mxCell id="TNNoIdRgvDNIgL5Zo4_y-129" value="1" style="text;strokeColor=none;align=center;fillColor=none;html=1;verticalAlign=middle;whiteSpace=wrap;rounded=0;" vertex="1" parent="1">
          <mxGeometry x="-67" y="286" width="50" height="20" as="geometry" />
        </mxCell>
        <mxCell id="TNNoIdRgvDNIgL5Zo4_y-132" value="1" style="text;strokeColor=none;align=center;fillColor=none;html=1;verticalAlign=middle;whiteSpace=wrap;rounded=0;" vertex="1" parent="1">
          <mxGeometry x="514" y="776" width="50" height="20" as="geometry" />
        </mxCell>
        <mxCell id="TNNoIdRgvDNIgL5Zo4_y-133" value="1" style="text;strokeColor=none;align=center;fillColor=none;html=1;verticalAlign=middle;whiteSpace=wrap;rounded=0;" vertex="1" parent="1">
          <mxGeometry x="883" y="488" width="50" height="20" as="geometry" />
        </mxCell>
        <mxCell id="TNNoIdRgvDNIgL5Zo4_y-134" value="&lt;img style=&quot;border: 0px; vertical-align: -0.338ex; margin: 0px; display: inline-block; --color-base: #202122; --color-base--hover: #404244; --color-emphasized: #000; --color-subtle: #54595d; --color-placeholder: #72777d; --color-disabled: #72777d; --color-inverted: #fff; --color-inverted-fixed: #fff; --color-progressive: #36c; --color-progressive--hover: #447ff5; --color-progressive--active: #2a4b8d; --color-progressive--focus: #36c; --color-destructive: #d73333; --color-destructive--hover: #ff4242; --color-destructive--active: #b32424; --color-destructive--focus: #36c; --color-visited: #6b4ba1; --color-destructive--visited: #a55858; --color-error: #d73333; --color-warning: #edab00; --color-success: #14866d; --color-notice: #202122; --color-content-added: #36c; --color-content-removed: #a66200; --color-base--subtle: #72777d; --color-link-red: #d73333; --color-link-red--hover: #ff4242; --color-link-red--active: #b32424; --color-link-red--focus: #36c; --color-link-red--visited: #a55858; --filter-invert-icon: 0; --filter-invert-primary-button-icon: 1; --box-shadow-color-base: #000; --box-shadow-color-progressive--active: #2a4b8d; --box-shadow-color-progressive--focus: #36c; --box-shadow-color-progressive-selected: #36c; --box-shadow-color-progressive-selected--hover: #447ff5; --box-shadow-color-progressive-selected--active: #2a4b8d; --box-shadow-color-destructive--focus: #36c; --box-shadow-color-inverted: #fff; --box-shadow-color-transparent: transparent; --background-color-interactive: #eaecf0; --background-color-interactive-subtle: #f8f9fa; --background-color-disabled: #c8ccd1; --background-color-disabled-subtle: #eaecf0; --background-color-progressive: #36c; --background-color-progressive--hover: #447ff5; --background-color-progressive--active: #2a4b8d; --background-color-progressive--focus: #36c; --background-color-progressive-subtle: #eaf3ff; --background-color-destructive: #d73333; --background-color-destructive--hover: #ff4242; --background-color-destructive--active: #b32424; --background-color-destructive--focus: #36c; --background-color-destructive-subtle: #fee7e6; --background-color-error: #d73333; --background-color-error--hover: #ff4242; --background-color-error--active: #b32424; --background-color-error-subtle: #fee7e6; --background-color-warning-subtle: #fef6e7; --background-color-success-subtle: #d5fdf4; --background-color-notice-subtle: #eaecf0; --background-color-content-added: #6d8af2; --background-color-content-removed: #ad822b; --background-color-backdrop-light: rgba(255,255,255,0.65); --background-color-backdrop-dark: rgba(0,0,0,0.65); --background-color-base: #fff; --background-color-base-fixed: #fff; --background-color-neutral: #eaecf0; --background-color-neutral-subtle: #f8f9fa; --background-color-transparent: transparent; --background-color-button-quiet--hover: rgba(0,24,73,0.027); --background-color-button-quiet--active: rgba(0,24,73,0.082); --background-color-input-binary--checked: #36c; --background-color-tab-list-item-framed--hover: rgba(255,255,255,0.3); --background-color-tab-list-item-framed--active: rgba(255,255,255,0.65); --opacity-icon-base: 0.87; --opacity-icon-base--hover: 0.74; --opacity-icon-base--selected: 1; --opacity-icon-base--disabled: 0.51; --opacity-icon-placeholder: 0.51; --opacity-icon-subtle: 0.67; --border-color-base: #a2a9b1; --border-color-interactive: #72777d; --border-color-disabled: #c8ccd1; --border-color-subtle: #c8ccd1; --border-color-muted: #eaecf0; --border-color-inverted: #fff; --border-color-progressive: #36c; --border-color-progressive--hover: #447ff5; --border-color-progressive--active: #2a4b8d; --border-color-progressive--focus: #36c; --border-color-destructive: #d73333; --border-color-destructive--hover: #ff4242; --border-color-destructive--active: #b32424; --border-color-destructive--focus: #36c; --border-color-error: #b32424; --border-color-error--hover: #ff4242; --border-color-warning: #a66200; --border-color-success: #096450; --border-color-notice: #54595d; --border-color-content-added: #6d8af2; --border-color-content-removed: #ad822b; --border-color-transparent: transparent; --border-color-divider: #a2a9b1; --border-color-input--hover: #72777d; --border-color-input-binary: #72777d; --border-color-input-binary--hover: #447ff5; --border-color-input-binary--active: #2a4b8d; --border-color-input-binary--focus: #36c; --border-color-input-binary--checked: #36c; --border-base: 1px solid #a2a9b1; --border-subtle: 1px solid #c8ccd1; --border-progressive: 1px solid #36c; --border-destructive: 1px solid #d73333; --outline-color-progressive--focus: #36c; color: rgb(32, 33, 34); font-family: sans-serif; font-size: 14px; text-align: start; background-color: rgb(255, 255, 255); width: 2.324ex; height: 1.676ex;&quot; alt=&quot;{\displaystyle \infty }&quot; aria-hidden=&quot;true&quot; class=&quot;mwe-math-fallback-image-inline mw-invert skin-invert&quot; src=&quot;https://wikimedia.org/api/rest_v1/media/math/render/svg/c26c105004f30c27aa7c2a9c601550a4183b1f21&quot;&gt;" style="text;strokeColor=none;align=center;fillColor=none;html=1;verticalAlign=middle;whiteSpace=wrap;rounded=0;" vertex="1" parent="1">
          <mxGeometry x="240" y="808" width="50" height="20" as="geometry" />
        </mxCell>
      </root>
    </mxGraphModel>
  </diagram>
</mxfile>
